<svg width="20" height="20" viewBox="0 0 20 20" fill="none" xmlns="http://www.w3.org/2000/svg">
<g id="share_svgrepo.com">
<path id="Vector" d="M7.50016 9.99996C7.50016 11.1505 6.56742 12.0833 5.41683 12.0833C4.26624 12.0833 3.3335 11.1505 3.3335 9.99996C3.3335 8.84938 4.26624 7.91663 5.41683 7.91663C6.56742 7.91663 7.50016 8.84938 7.50016 9.99996Z" stroke="white" stroke-width="1.5"/>
<path id="Vector_2" d="M11.6667 5.41663L7.5 8.33329" stroke="white" stroke-width="1.5" stroke-linecap="round"/>
<path id="Vector_3" d="M11.6667 14.5833L7.5 11.6666" stroke="white" stroke-width="1.5" stroke-linecap="round"/>
<path id="Vector_4" d="M15.8332 15.4167C15.8332 16.5673 14.9004 17.5 13.7498 17.5C12.5993 17.5 11.6665 16.5673 11.6665 15.4167C11.6665 14.2661 12.5993 13.3334 13.7498 13.3334C14.9004 13.3334 15.8332 14.2661 15.8332 15.4167Z" stroke="white" stroke-width="1.5"/>
<path id="Vector_5" d="M15.8332 4.58333C15.8332 5.73392 14.9004 6.66667 13.7498 6.66667C12.5993 6.66667 11.6665 5.73392 11.6665 4.58333C11.6665 3.43274 12.5993 2.5 13.7498 2.5C14.9004 2.5 15.8332 3.43274 15.8332 4.58333Z" stroke="white" stroke-width="1.5"/>
</g>
</svg>
